<svg width="768" height="631" fill="none" xmlns="http://www.w3.org/2000/svg"><g opacity=".3"><path d="M236.47 843.132c-298.281 0-335.88-196.051-322.556-294.874 20.16-149.526 185.47-228.43 209.66-274.111 24.193-45.704 0-112.15 0-112.15S296.95 278.3 220.342 398.732c-76.605 120.456 60.48 265.829 88.703 178.596 28.225-87.21 4.032-153.679 4.032-153.679s100.798 29.07 116.926 182.748C446.13 760.076 276.787 843.132 236.47 843.132Z" fill="#FC0001"/><path d="M458.235 132.895c-151.6 87.846-96.767 195.209-12.098 278.287 104.459 102.471 145.152 265.814-80.638 336.419C191.2 802.114 264.701 851.442 264.701 851.442s396.64 87.284 536.248-161.998c120.962-215.973-100.798-444.393-100.798-444.393s28.224 166.131-92.733 153.683c-104.156-10.737-106.57-110.738-60.48-199.367C607.418 83.077 494.522 0 494.522 0s28.224 95.526-36.287 132.895Z" fill="#FC0001"/><path d="M171.961 319.824C-154.628 469.342-122.374 776.678 67.129 847.287c189.503 70.609 338.682-45.685 342.716-157.818 4.031-112.133-32.257-182.742-32.257-182.742s-56.447 191.042-169.341 95.532c-112.895-95.532-36.286-282.435-36.286-282.435ZM519.708 423.662c-149.181-58.135-143.017-196.07-107.854-231.547 48.384-48.805 73.073-40.372 95.759-65.405 28.222-31.164 12.095-90.34 12.095-90.34s72.578 82.028 12.097 146.415c-52.156 55.494-64.511 166.118-12.097 240.877Z" fill="#FB6D01"/><path d="M723.673 287.962c209.662 213.895 95.423 488.711-55.774 540.624-151.2 51.914-175.392 49.849-233.854 16.609-58.465-33.217 16.128-172.35 122.974-197.285 106.847-24.914 54.432-49.827 4.034-107.98-50.403-58.153-31.587-170.285-31.587-170.285s77.28 87.922 149.858 54.001c69.203-32.355 44.349-135.684 44.349-135.684Z" fill="#FB6D01"/><path d="M577.161 450.667c-38.302 128.76 159.264 153.683 133.055 253.355-26.209 99.672-217.724 124.595-217.724 124.595s234.69 47.2 306.426-107.98c60.478-130.842-50.4-193.139-127.007-199.365-90.634-7.375-94.75-70.605-94.75-70.605Z" fill="#EFA204"/><path d="M748.531 330.892c137.088 175.126 47.508 287.863-9.408 231.887-56.916-55.953 46.367-133.593 9.408-231.887ZM107.444 382.133c-219.739 164.047-202.94 332.274-94.078 423.64 108.862 91.366 293.659 89.288 338.01-20.763 44.352-110.072-26.208-128.757-159.262-157.834-133.052-29.077-84.67-245.043-84.67-245.043ZM480.397 488.046c106.844 85.14 143.131 178.585 102.814 261.665-40.321 83.058-217.724 116.281-189.502 18.672C421.934 670.795 508.62 652.102 508.62 579.41c0-72.671-28.223-91.364-28.223-91.364Z" fill="#EFA204"/><path d="M48.99 458.944c-147.165 168.212-75.934 356.485 16.8 381.415 92.735 24.93 231.166-28.371 241.245-86.519 10.081-58.148-6.047-87.234-6.047-87.234s22.178 29.086-54.431 70.614c-76.608 41.528-92.734 31.141-92.734 31.141s40.317-58.149-50.401-157.825C12.702 510.859 48.99 458.944 48.99 458.944ZM355.416 512.942c62.495 89.286 26.209 180.682 26.209 180.682s0-35.31-30.241-70.619c-30.238-35.31 4.032-110.063 4.032-110.063ZM726.354 760.069c98.057-80.803 68.544-164.051-8.065-201.444-76.604-37.372-82.654-26.998-82.654-26.998s60.403 67.495 76.606 99.68c28.225 56.08 10.079 128.762-60.478 166.134-70.561 37.394 24.192 4.167 74.591-37.372ZM498.549 153.687c-76.607 47.756-122.976 78.911-104.833 153.683 23.195 95.558 104.833 91.373 104.833 91.373s-52.415-51.918-46.369-116.297c6.049-64.38 46.369-128.759 46.369-128.759Z" fill="#FACF67"/><path d="M617.486 344.75c62.494-62.294 15.889-88.227 6.047-137.069-7.389-36.69 18.144-74.752 18.144-74.752s-65.24 66.478-38.303 109.362c44.353 70.614 14.112 102.459 14.112 102.459Z" fill="#FC0001"/><path d="M220.34 196.618c16.128 49.848 15.336 75.585-21.504 120.434-73.92 90.001-16.128 150.916-17.472 146.754-1.344-4.138-7.245-88.28 38.976-125.968 64.51-52.615 0-141.22 0-141.22Z" fill="#FCE8B3"/><path d="M260.668 472.098c-25.536 55.387-2.689 84.45-2.689 84.45l2.689-84.45Z" fill="#FC0001"/><path d="M20.089 551.028C-32.324 703.32-30.984 784.989 49.655 822.377c80.639 37.388 102.881-110.394 53.762-146.75-95.424-70.603-83.328-124.599-83.328-124.599ZM532.155 852.813c-155.902 30.453-168-16.603-185.472-51.216-17.469-34.614 74.859-123.944 177.406-92.766 163.967 49.85 114.242-96.907 114.242-96.907s81.981 27.679 48.383 135.682c-30.646 98.479-124.189 99.286-154.559 105.207Z" fill="#FCE8B3"/><path d="M482.411 539.958c-46.366 64.383-40.316 107.98-20.158 155.744 20.158 47.763-20.158 87.217-14.112 87.217 6.05 0 78.622-64.361 46.366-137.052-32.254-72.671-12.096-105.909-12.096-105.909Z" fill="#FB6D01"/><path d="M775.415 436.099c60.48 63.687 72.576 124.607 22.85 217.35 6.72-42.908-34.944-74.752-34.944-74.752s39.245-34.588 37.631-67.847c-1.345-27.683-25.537-74.751-25.537-74.751Z" fill="#FCE8B3"/><path d="M750.54 557.266c26.207-69.923-22.848-95.539-60.479-120.462-37.632-24.901-34.944-90.671-34.944-90.671s-47.709 47.77-19.487 117.671c20.681 51.231 114.91 93.462 114.91 93.462Z" fill="#FACF67"/></g></svg>