<svg width="18" height="18" viewBox="0 0 18 18" fill="none" xmlns="http://www.w3.org/2000/svg">
<path d="M11.2673 7.5C11.0031 7.5 10.77 7.32718 10.6932 7.07438L9.5741 3.39004C9.40172 2.82255 8.59828 2.82255 8.4259 3.39004L7.30678 7.07438C7.22999 7.32718 6.99688 7.5 6.73268 7.5H3.37376C2.78991 7.5 2.54999 8.24927 3.02524 8.5884L5.78216 10.5557C5.99278 10.706 6.08332 10.9744 6.0068 11.2216L4.92594 14.7125C4.75333 15.27 5.39757 15.7208 5.86218 15.3676L8.6372 13.2583C8.85165 13.0953 9.14844 13.0952 9.36301 13.258L12.1464 15.3703C12.6111 15.723 13.2548 15.2722 13.0823 14.7149L12.0006 11.2212C11.9241 10.9742 12.0145 10.706 12.2249 10.5556L14.9776 8.58813C15.4524 8.24877 15.2123 7.5 14.6287 7.5H11.2673Z" fill="#F87C09"/>
</svg>
