<svg width="768" height="631" viewBox="0 0 768 631" fill="none" xmlns="http://www.w3.org/2000/svg">
<g opacity="0.3">
<path d="M236.47 843.132C-61.8114 843.132 -99.4093 647.081 -86.0863 548.258C-65.9263 398.732 99.3843 319.828 123.574 274.147C147.767 228.443 123.574 161.997 123.574 161.997C123.574 161.997 296.95 278.3 220.342 398.732C143.737 519.188 280.822 664.561 309.045 577.328C337.27 490.118 313.077 423.649 313.077 423.649C313.077 423.649 413.875 452.719 430.003 606.397C446.13 760.076 276.787 843.132 236.47 843.132Z" fill="#FC0001"/>
<path d="M458.235 132.895C306.635 220.741 361.468 328.104 446.137 411.182C550.596 513.653 591.289 676.996 365.499 747.601C191.2 802.114 264.701 851.442 264.701 851.442C264.701 851.442 661.341 938.726 800.949 689.444C921.911 473.471 700.151 245.051 700.151 245.051C700.151 245.051 728.375 411.182 607.418 398.734C503.262 387.997 500.848 287.996 546.938 199.367C607.418 83.0775 494.522 -0.000183105 494.522 -0.000183105C494.522 -0.000183105 522.746 95.5258 458.235 132.895Z" fill="#FC0001"/>
<path d="M171.961 319.824C-154.628 469.342 -122.374 776.678 67.129 847.287C256.632 917.896 405.811 801.602 409.845 689.469C413.876 577.336 377.588 506.727 377.588 506.727C377.588 506.727 321.141 697.769 208.247 602.259C95.3525 506.727 171.961 319.824 171.961 319.824Z" fill="#FB6D01"/>
<path d="M519.708 423.662C370.527 365.527 376.691 227.592 411.854 192.115C460.238 143.31 484.927 151.743 507.613 126.71C535.835 95.5463 519.708 36.3692 519.708 36.3692C519.708 36.3692 592.286 118.398 531.805 182.785C479.649 238.279 467.294 348.903 519.708 423.662Z" fill="#FB6D01"/>
<path d="M723.673 287.962C933.335 501.857 819.096 776.673 667.899 828.586C516.699 880.5 492.507 878.435 434.045 845.195C375.58 811.978 450.173 672.845 557.019 647.91C663.866 622.996 611.451 598.083 561.053 539.93C510.65 481.777 529.466 369.645 529.466 369.645C529.466 369.645 606.746 457.567 679.324 423.646C748.527 391.291 723.673 287.962 723.673 287.962Z" fill="#FB6D01"/>
<path d="M577.161 450.667C538.859 579.427 736.425 604.35 710.216 704.022C684.007 803.694 492.492 828.617 492.492 828.617C492.492 828.617 727.182 875.817 798.918 720.637C859.396 589.795 748.518 527.498 671.911 521.272C581.277 513.897 577.161 450.667 577.161 450.667Z" fill="#EFA204"/>
<path d="M748.531 330.892C885.619 506.018 796.039 618.755 739.123 562.779C682.207 506.826 785.49 429.186 748.531 330.892Z" fill="#EFA204"/>
<path d="M107.444 382.133C-112.295 546.18 -95.4959 714.407 13.3661 805.773C122.228 897.139 307.025 895.061 351.376 785.01C395.728 674.938 325.168 656.253 192.114 627.176C59.062 598.099 107.444 382.133 107.444 382.133Z" fill="#EFA204"/>
<path d="M480.397 488.046C587.241 573.186 623.528 666.631 583.211 749.711C542.89 832.769 365.487 865.992 393.709 768.383C421.934 670.795 508.62 652.102 508.62 579.41C508.62 506.739 480.397 488.046 480.397 488.046Z" fill="#EFA204"/>
<path d="M48.9897 458.944C-98.1752 627.156 -26.9438 815.429 65.7907 840.359C158.525 865.289 296.956 811.988 307.035 753.84C317.116 695.692 300.988 666.606 300.988 666.606C300.988 666.606 323.166 695.692 246.557 737.22C169.949 778.748 153.823 768.361 153.823 768.361C153.823 768.361 194.14 710.212 103.422 610.536C12.7029 510.859 48.9897 458.944 48.9897 458.944Z" fill="#FACF67"/>
<path d="M355.416 512.942C417.911 602.228 381.625 693.624 381.625 693.624C381.625 693.624 381.625 658.314 351.384 623.005C321.146 587.695 355.416 512.942 355.416 512.942Z" fill="#FACF67"/>
<path d="M726.354 760.069C824.411 679.266 794.898 596.018 718.289 558.625C641.685 521.253 635.635 531.627 635.635 531.627C635.635 531.627 696.038 599.122 712.241 631.307C740.466 687.387 722.32 760.069 651.763 797.441C581.202 834.835 675.955 801.608 726.354 760.069Z" fill="#FACF67"/>
<path d="M498.549 153.687C421.942 201.443 375.573 232.598 393.716 307.37C416.911 402.928 498.549 398.743 498.549 398.743C498.549 398.743 446.134 346.825 452.18 282.446C458.229 218.066 498.549 153.687 498.549 153.687Z" fill="#FACF67"/>
<path d="M617.486 344.75C679.98 282.456 633.375 256.523 623.533 207.681C616.144 170.991 641.677 132.929 641.677 132.929C641.677 132.929 576.437 199.407 603.374 242.291C647.727 312.905 617.486 344.75 617.486 344.75Z" fill="#FC0001"/>
<path d="M220.34 196.618C236.468 246.466 235.676 272.203 198.836 317.052C124.916 407.053 182.708 467.968 181.364 463.806C180.02 459.668 174.119 375.526 220.34 337.838C284.85 285.223 220.34 196.618 220.34 196.618Z" fill="#FCE8B3"/>
<path d="M260.668 472.098C235.132 527.485 257.979 556.548 257.979 556.548L260.668 472.098Z" fill="#FC0001"/>
<path d="M20.0888 551.028C-32.3245 703.32 -30.9844 784.989 49.6545 822.377C130.294 859.765 152.536 711.983 103.417 675.627C7.99277 605.024 20.0888 551.028 20.0888 551.028Z" fill="#FCE8B3"/>
<path d="M532.155 852.813C376.253 883.266 364.155 836.21 346.683 801.597C329.214 766.983 421.542 677.653 524.089 708.831C688.056 758.681 638.331 611.924 638.331 611.924C638.331 611.924 720.312 639.603 686.714 747.606C656.068 846.085 562.525 846.892 532.155 852.813Z" fill="#FCE8B3"/>
<path d="M482.411 539.958C436.045 604.341 442.095 647.938 462.253 695.702C482.411 743.465 442.095 782.919 448.141 782.919C454.191 782.919 526.763 718.558 494.507 645.867C462.253 573.196 482.411 539.958 482.411 539.958Z" fill="#FB6D01"/>
<path d="M775.415 436.099C835.895 499.786 847.991 560.706 798.265 653.449C804.985 610.541 763.321 578.697 763.321 578.697C763.321 578.697 802.566 544.109 800.952 510.85C799.607 483.167 775.415 436.099 775.415 436.099Z" fill="#FCE8B3"/>
<path d="M750.54 557.266C776.747 487.343 727.692 461.727 690.061 436.804C652.429 411.903 655.117 346.133 655.117 346.133C655.117 346.133 607.408 393.903 635.63 463.804C656.311 515.035 750.54 557.266 750.54 557.266Z" fill="#FACF67"/>
</g>
</svg>
